<?xml version="1.0" encoding="UTF-8"?><svg id="Layer_1" xmlns="http://www.w3.org/2000/svg" viewBox="0 0 1408.75 373.35"><defs><style>.cls-1{fill:#fff;}</style></defs><polygon class="cls-1" points="169.8 207.83 173.44 207.83 253.16 48.88 168.49 0 89.05 45.86 169.8 207.83"/><polygon class="cls-1" points="298.86 75.27 254.11 160.48 302.51 160.48 302.51 194.83 235.89 194.83 209.35 241.14 302.51 241.14 302.51 276.01 199.98 276.01 199.98 370.94 336.99 291.84 336.99 97.28 298.86 75.27"/><polygon class="cls-1" points="141.18 276.01 39.17 276.01 39.17 241.14 131.8 241.14 105.26 194.83 39.17 194.83 39.17 160.48 87.04 160.48 41.6 73.26 0 97.28 0 291.84 141.18 373.35 141.18 276.01"/><path class="cls-1" d="M419.73,256.37v-43.33l-41.91-78.85h26.46l28.06,54.34h1.24l27.88-54.34h25.57l-42.09,78.85v43.33h-25.22Z"/><path class="cls-1" d="M515.81,256.37v-122.19h25.22v122.19h-25.22Z"/><path class="cls-1" d="M583.47,256.37v-122.19h83.47v20.6h-58.25v29.66h49.9v20.6h-49.9v30.72h58.25v20.6h-83.47Z"/><path class="cls-1" d="M704.59,256.37v-122.19h25.22v100.87h51.15v21.31h-76.37Z"/><path class="cls-1" d="M813.46,256.37v-122.19h41.56c10.54,0,19.15.53,25.84,1.6,6.69,1.07,11.96,2.93,15.81,5.59,3.85,2.66,6.63,6.34,8.35,11.01,1.71,4.68,2.81,10.51,3.29,17.49.47,6.99.71,15.45.71,25.4s-.24,18.41-.71,25.4c-.47,6.99-1.57,12.82-3.29,17.49-1.72,4.68-4.5,8.35-8.35,11.01-3.85,2.66-9.12,4.53-15.81,5.59-6.69,1.07-15.3,1.6-25.84,1.6h-41.56ZM838.67,235.77h14.92c5.8,0,10.57-.15,14.3-.44,3.73-.29,6.69-1.04,8.88-2.22,2.19-1.18,3.76-3.22,4.71-6.13.95-2.9,1.57-6.9,1.86-11.99.29-5.09.44-11.66.44-19.71s-.15-14.47-.44-19.62c-.3-5.15-.95-9.15-1.95-11.99-1.01-2.84-2.61-4.88-4.79-6.13-2.19-1.24-5.12-2.01-8.79-2.31-3.67-.29-8.41-.44-14.21-.44h-14.92v80.98Z"/><path class="cls-1" d="M936.17,256.37l41.38-122.19h33.74l41.38,122.19h-25.75l-9.06-26.99h-47.77l-8.7,26.99h-25.22ZM976.49,208.95h34.81l-16.87-51.86h-1.07l-16.87,51.86Z"/><path class="cls-1" d="M1083.22,256.37v-122.19h59.67c7.93,0,14.41,1.15,19.45,3.46,5.03,2.31,8.76,5.74,11.19,10.3,2.42,4.56,3.64,10.21,3.64,16.96,0,5.57-.77,10.3-2.31,14.21-1.54,3.91-3.85,7.05-6.93,9.41-3.08,2.37-7.05,4.08-11.9,5.15v.71c5.44,1.07,9.79,2.81,13.05,5.24,3.25,2.43,5.59,5.62,7.01,9.59,1.42,3.97,2.13,8.91,2.13,14.83,0,4.86-.59,9.27-1.78,13.23-1.18,3.97-3.11,7.37-5.77,10.21-2.66,2.84-6.25,5.03-10.75,6.57-4.5,1.54-10.12,2.31-16.87,2.31h-59.85ZM1108.44,184.62h25.4c4.5,0,8.08-.47,10.74-1.42,2.66-.95,4.56-2.51,5.68-4.71,1.12-2.19,1.69-5.06,1.69-8.61,0-4.14-.5-7.31-1.51-9.5-1.01-2.19-2.78-3.7-5.33-4.53-2.55-.83-6.3-1.24-11.28-1.24h-25.4v30.01ZM1108.44,236.12h26.28c4.73,0,8.46-.44,11.19-1.33,2.72-.89,4.59-2.49,5.59-4.8,1-2.31,1.51-5.53,1.51-9.68s-.53-7.19-1.6-9.5c-1.07-2.31-2.93-3.93-5.59-4.88-2.66-.95-6.37-1.42-11.1-1.42h-26.28v31.61Z"/><path class="cls-1" d="M1216.41,256.37v-122.19h25.22v100.87h51.15v21.31h-76.37Z"/><path class="cls-1" d="M1325.28,256.37v-122.19h83.47v20.6h-58.25v29.66h49.9v20.6h-49.9v30.72h58.25v20.6h-83.47Z"/></svg>